<svg xmlns="http://www.w3.org/2000/svg" viewBox="0 0 500 500"><g id="freepik--background-complete--inject-51"><rect y="382.4" width="500" height="0.25" style="fill:#ebebeb"></rect><rect x="416.78" y="398.49" width="33.12" height="0.25" style="fill:#ebebeb"></rect><rect x="322.53" y="401.21" width="8.69" height="0.25" style="fill:#ebebeb"></rect><rect x="396.59" y="389.21" width="19.19" height="0.25" style="fill:#ebebeb"></rect><rect x="52.46" y="390.89" width="43.19" height="0.25" style="fill:#ebebeb"></rect><rect x="104.56" y="390.89" width="6.33" height="0.25" style="fill:#ebebeb"></rect><rect x="131.47" y="395.11" width="93.68" height="0.25" style="fill:#ebebeb"></rect><path d="M237,337.8H43.91a5.71,5.71,0,0,1-5.7-5.71V60.66A5.71,5.71,0,0,1,43.91,55H237a5.71,5.71,0,0,1,5.71,5.71V332.09A5.71,5.71,0,0,1,237,337.8ZM43.91,55.2a5.46,5.46,0,0,0-5.45,5.46V332.09a5.46,5.46,0,0,0,5.45,5.46H237a5.47,5.47,0,0,0,5.46-5.46V60.66A5.47,5.47,0,0,0,237,55.2Z" style="fill:#ebebeb"></path><path d="M453.31,337.8H260.21a5.72,5.72,0,0,1-5.71-5.71V60.66A5.72,5.72,0,0,1,260.21,55h193.1A5.71,5.71,0,0,1,459,60.66V332.09A5.71,5.71,0,0,1,453.31,337.8ZM260.21,55.2a5.47,5.47,0,0,0-5.46,5.46V332.09a5.47,5.47,0,0,0,5.46,5.46h193.1a5.47,5.47,0,0,0,5.46-5.46V60.66a5.47,5.47,0,0,0-5.46-5.46Z" style="fill:#ebebeb"></path><path d="M189.66,327.61,202.23,359H244a36.88,36.88,0,0,0,26.28,11H323l6-9h12l1.6,1.51A23.75,23.75,0,0,0,358.92,369h0A23.79,23.79,0,0,0,376,361.75l.72-.75H412l13-23.26Z" style="fill:#e0e0e0"></path><path d="M410.83,307H424.5c15.19,0,27.5,17,27.5,38s-12.31,38-27.5,38H410.83c-15.18,0-27.5-17-27.5-38S395.65,307,410.83,307Z" style="fill:#e0e0e0"></path><path d="M168.83,307H182.5c15.19,0,27.5,17,27.5,38s-12.31,38-27.5,38H168.83c-15.18,0-27.5-17-27.5-38S153.65,307,168.83,307Z" style="fill:#e0e0e0"></path><path d="M289.83,307H303.5c15.19,0,27.5,17,27.5,38s-12.31,38-27.5,38H289.83c-15.18,0-27.5-17-27.5-38S274.65,307,289.83,307Z" style="fill:#e0e0e0"></path><path d="M472,330.25v10.5a4.25,4.25,0,0,1-4.25,4.25H137.25a4.25,4.25,0,0,1-4.25-4.25V324.36a4.24,4.24,0,0,1,1.84-3.49L139,318V297.6a31.15,31.15,0,0,1,21.1-29.49c.87-.3,1.76-.56,2.66-.78l23.6-5.77,12.18-22.84A33.48,33.48,0,0,1,228.09,221H339.44a36.51,36.51,0,0,1,32,18.89L386.33,267l13.9,5,38,13.66a31.13,31.13,0,0,1,19.11,19.73L464,326h3.75A4.25,4.25,0,0,1,472,330.25Z" style="fill:#e6e6e6"></path><path d="M275,225l12.33,43s51.9,4.67,70.52,4.67c24.67,0,28.48-5.67,28.48-5.67L371.4,239.89A36.48,36.48,0,0,0,356,225Z" style="fill:#f0f0f0"></path><polygon points="282.33 267.62 271 225 236 225 229 264.67 282.33 267.62" style="fill:#f0f0f0"></polygon><path d="M224.17,263,232,225h-5.75A30,30,0,0,0,199,242.49l-8.65,18.84Z" style="fill:#f0f0f0"></path><path d="M346,326v19H467.75a4.25,4.25,0,0,0,4.25-4.25v-10.5a4.25,4.25,0,0,0-4.25-4.25Z" style="fill:#f0f0f0"></path><ellipse cx="355.17" cy="309.83" rx="10.5" ry="11.5" style="fill:#fafafa"></ellipse><ellipse cx="444.17" cy="309.83" rx="10.5" ry="11.5" style="fill:#fafafa"></ellipse><ellipse cx="284.53" cy="349.5" rx="21.97" ry="29.5" style="fill:#e0e0e0"></ellipse><ellipse cx="282.63" cy="350.93" rx="11.88" ry="15.94" style="fill:#e6e6e6"></ellipse><ellipse cx="164.53" cy="350.5" rx="21.97" ry="29.5" style="fill:#e0e0e0"></ellipse><ellipse cx="162.63" cy="351.93" rx="11.88" ry="15.94" style="fill:#e6e6e6"></ellipse><path d="M371.48,313.38C369.56,301,404,301.25,404,301.25s3,5.25,3.75,18.75C407.75,320,373,323.45,371.48,313.38Z" style="fill:#ebebeb"></path><path d="M407.75,301.25s3.5,12.39,2.75,19.32c0,0,20.58,1.76,19.08-8.32S407.75,301.25,407.75,301.25Z" style="fill:#ebebeb"></path><path d="M326.67,326H346a0,0,0,0,1,0,0v19a0,0,0,0,1,0,0H326.67a5.08,5.08,0,0,1-5.08-5.08v-8.85A5.08,5.08,0,0,1,326.67,326Z" style="fill:#ebebeb"></path><path d="M287.5,268.87S330,275,360.87,293H425s-13.25-12.33-37.25-24.17C387.75,268.83,379.75,283,287.5,268.87Z" style="fill:#ebebeb"></path><path d="M342.25,294.36,338,300v21l-16.4-.31-11,8.31C304.31,307.67,291,301.33,275,304s-18,25-18,25H190.33S182.5,306.85,168,305.12,149,318,149,318H139V297.6a31.15,31.15,0,0,1,21.1-29.49L186.5,263l42.5,3.51s49.67,2.86,55.53,4.31S342.25,294.36,342.25,294.36Z" style="fill:#e0e0e0"></path><rect x="260.01" y="91.02" width="175" height="54.63" style="fill:#f5f5f5"></rect><path d="M294.37,122.62a5.25,5.25,0,0,1-2.2,4.48,7.59,7.59,0,0,1-2.39,1.16,10.35,10.35,0,0,1-2.89.39h-11.2V105.26H288.1a4.55,4.55,0,0,1,2.19.53,5.55,5.55,0,0,1,1.67,1.37,6.52,6.52,0,0,1,1.43,4.07,6.37,6.37,0,0,1-.85,3.21,5.12,5.12,0,0,1-2.48,2.22,5.92,5.92,0,0,1,3.15,2.13A6.12,6.12,0,0,1,294.37,122.62ZM280.2,109.15v5.9h6a2.68,2.68,0,0,0,1.94-.79,3,3,0,0,0,.8-2.18,3,3,0,0,0-.73-2.14,2.38,2.38,0,0,0-1.82-.79Zm9.63,12.62a3.54,3.54,0,0,0-.21-1.21,3.38,3.38,0,0,0-.57-1,2.66,2.66,0,0,0-.85-.68,2.44,2.44,0,0,0-1.08-.24H280.2v6.16h6.69a3,3,0,0,0,1.16-.23A2.93,2.93,0,0,0,289.6,123,3,3,0,0,0,289.83,121.77Z" style="fill:#ebebeb"></path><path d="M297.9,128.65V105.26h4.51v23.39Z" style="fill:#ebebeb"></path><path d="M323.34,126a8.84,8.84,0,0,1-6.46,2.8,10.1,10.1,0,0,1-4.3-.93,10.83,10.83,0,0,1-3.49-2.53,12.3,12.3,0,0,1-2.36-3.81,12.85,12.85,0,0,1-.86-4.72,11.9,11.9,0,0,1,3.25-8.26A11.29,11.29,0,0,1,312.7,106a10.57,10.57,0,0,1,4.47-.94,10.82,10.82,0,0,1,5.6,1.38,8.93,8.93,0,0,1,3.51,3.73l-3.36,2.5a6.27,6.27,0,0,0-2.47-2.67,6.74,6.74,0,0,0-3.44-.92,6,6,0,0,0-2.7.62,6.41,6.41,0,0,0-2.09,1.72,8.33,8.33,0,0,0-1.34,2.5,9.52,9.52,0,0,0-.47,3,8.89,8.89,0,0,0,.52,3.08,7.89,7.89,0,0,0,1.44,2.48,6.68,6.68,0,0,0,2.17,1.67,6.27,6.27,0,0,0,2.73.61,7.87,7.87,0,0,0,6.07-3.2V120h-4.67v-3.33h8.4v12h-3.73Z" style="fill:#ebebeb"></path><path d="M352.57,111.39a5.62,5.62,0,0,0-.83-.62,9,9,0,0,0-1.47-.78,12.19,12.19,0,0,0-1.88-.64,7.89,7.89,0,0,0-2.05-.26,4.61,4.61,0,0,0-2.78.69,2.29,2.29,0,0,0-.91,1.94,2,2,0,0,0,.34,1.2,3,3,0,0,0,1,.84,8.82,8.82,0,0,0,1.65.66q1,.3,2.31.63a28.71,28.71,0,0,1,3.08,1,8.36,8.36,0,0,1,2.35,1.31,5.38,5.38,0,0,1,1.49,1.9,6.27,6.27,0,0,1,.52,2.71,6.81,6.81,0,0,1-.7,3.22,6,6,0,0,1-1.89,2.15,8.37,8.37,0,0,1-2.75,1.21,13.72,13.72,0,0,1-3.25.37,17.24,17.24,0,0,1-5.16-.79,15.57,15.57,0,0,1-4.57-2.24l2-3.92a6.43,6.43,0,0,0,1.06.78,15.21,15.21,0,0,0,1.82,1,13.69,13.69,0,0,0,2.32.81,10.37,10.37,0,0,0,2.61.33q3.72,0,3.72-2.4a2,2,0,0,0-.42-1.29,3.68,3.68,0,0,0-1.21-.92,11.84,11.84,0,0,0-1.9-.73l-2.48-.72a20.46,20.46,0,0,1-2.89-1,7.65,7.65,0,0,1-2-1.28,4.76,4.76,0,0,1-1.22-1.71,5.83,5.83,0,0,1-.41-2.32,7.45,7.45,0,0,1,.65-3.17,6.41,6.41,0,0,1,1.81-2.3,8.15,8.15,0,0,1,2.7-1.4,11,11,0,0,1,3.3-.48,12.8,12.8,0,0,1,4.5.77,17.07,17.07,0,0,1,3.6,1.83Z" style="fill:#ebebeb"></path><path d="M365,105.26h4l8.82,23.39h-4.64L371,122.82h-8.1l-2.13,5.83h-4.64Zm5.19,14.37-3.2-9.19-3.33,9.19Z" style="fill:#ebebeb"></path><path d="M380.34,128.65V105.26h4.5v19.41h11.83v4Z" style="fill:#ebebeb"></path><path d="M415.51,124.67v4h-16.1V105.26h15.81v4h-11.3v5.63h9.76v3.69h-9.76v6.1Z" style="fill:#ebebeb"></path></g><g id="freepik--Shadow--inject-51"><ellipse id="freepik--path--inject-51" cx="250" cy="416.24" rx="193.89" ry="11.32" style="fill:#f5f5f5"></ellipse></g><g id="freepik--Sign--inject-51"><polygon points="113.16 383 91.95 220 88.16 220 84.22 220 83.99 220 81.43 220 79.66 220 43 383 47 383 80.05 238.26 69.12 383 73.69 383 86.59 237.67 108 383 113.16 383" style="fill:#e0e0e0"></polygon><polygon points="152.44 354.79 62 354.79 41 166.38 131.44 166.38 152.44 354.79" style="fill:#407BFF"></polygon><polygon points="152.44 354.79 62 354.79 41 166.38 131.44 166.38 152.44 354.79" style="fill:#fff;opacity:0.8;isolation:isolate"></polygon><polygon points="128.88 183 47.97 183 46.76 172.15 127.67 172.15 128.88 183" style="fill:#407BFF"></polygon><polygon points="100.2 227.83 52.97 227.83 52.55 224.07 99.78 224.07 100.2 227.83" style="fill:#407BFF"></polygon><polygon points="101.14 236.29 53.91 236.29 53.49 232.53 100.72 232.53 101.14 236.29" style="fill:#407BFF"></polygon><polygon points="76.61 218.1 51.88 218.1 49.19 193.96 73.92 193.96 76.61 218.1" style="fill:#407BFF"></polygon><polygon points="106.41 283.6 59.18 283.6 58.76 279.84 106 279.84 106.41 283.6" style="fill:#407BFF"></polygon><polygon points="107.36 292.06 60.13 292.06 59.71 288.3 106.94 288.3 107.36 292.06" style="fill:#407BFF"></polygon><polygon points="82.83 273.88 58.1 273.88 55.41 249.74 80.14 249.74 82.83 273.88" style="fill:#407BFF"></polygon><polygon points="128.88 183 47.97 183 46.76 172.15 127.67 172.15 128.88 183" style="fill:#fff;opacity:0.6000000000000001;isolation:isolate"></polygon><polygon points="100.2 227.83 52.97 227.83 52.55 224.07 99.78 224.07 100.2 227.83" style="fill:#fff;opacity:0.6000000000000001;isolation:isolate"></polygon><polygon points="101.14 236.29 53.91 236.29 53.49 232.53 100.72 232.53 101.14 236.29" style="fill:#fff;opacity:0.6000000000000001;isolation:isolate"></polygon><polygon points="76.61 218.1 51.88 218.1 49.19 193.96 73.92 193.96 76.61 218.1" style="fill:#fff;opacity:0.6000000000000001;isolation:isolate"></polygon><polygon points="106.41 283.6 59.18 283.6 58.76 279.84 106 279.84 106.41 283.6" style="fill:#fff;opacity:0.6000000000000001;isolation:isolate"></polygon><polygon points="107.36 292.06 60.13 292.06 59.71 288.3 106.94 288.3 107.36 292.06" style="fill:#fff;opacity:0.6000000000000001;isolation:isolate"></polygon><polygon points="82.83 273.88 58.1 273.88 55.41 249.74 80.14 249.74 82.83 273.88" style="fill:#fff;opacity:0.6000000000000001;isolation:isolate"></polygon></g><g id="freepik--character-2--inject-51"><g id="freepik--group--inject-51"><polygon points="333.48 407.03 325.37 407.88 323.85 390.39 331.96 389.53 333.48 407.03" style="fill:#e4897b"></polygon><polygon points="373.96 406.44 366.1 406.44 365.45 388.23 373.32 388.23 373.96 406.44" style="fill:#e4897b"></polygon><path d="M365,405.53h9.55a.68.68,0,0,1,.67.54l1.55,7a1.18,1.18,0,0,1-1.15,1.4c-3.09-.05-5.34-.24-9.22-.24-2.39,0-9.6.25-12.9.25s-3.73-3.26-2.38-3.56c6.06-1.32,10.62-3.15,12.56-4.89A1.89,1.89,0,0,1,365,405.53Z" style="fill:#2e353a"></path><path d="M362.41,406.91a2.38,2.38,0,0,1-1.51-.4,1.12,1.12,0,0,1-.39-1,.55.55,0,0,1,.32-.52c.87-.45,3.41,1.11,3.69,1.29a.16.16,0,0,1,.09.18.19.19,0,0,1-.14.16A9.47,9.47,0,0,1,362.41,406.91Zm-1.17-1.63a.4.4,0,0,0-.24.05c-.05,0-.11.07-.12.22a.77.77,0,0,0,.25.67,3.82,3.82,0,0,0,2.8.14A7.5,7.5,0,0,0,361.24,405.28Z" style="fill:#407BFF"></path><path d="M364.42,406.63h-.09c-.81-.44-2.38-2.17-2.22-3a.61.61,0,0,1,.6-.49,1,1,0,0,1,.79.24c.91.74,1.1,3,1.11,3.11a.2.2,0,0,1-.09.17A.17.17,0,0,1,364.42,406.63Zm-1.58-3.19h-.09c-.24,0-.26.14-.27.19-.1.51.9,1.82,1.71,2.43a4.38,4.38,0,0,0-.93-2.46A.61.61,0,0,0,362.84,403.44Z" style="fill:#407BFF"></path><path d="M324.51,405.28h9.55a.68.68,0,0,1,.67.54l1.55,7a1.18,1.18,0,0,1-1.15,1.4c-3.09-.05-5.34-.24-9.22-.24-2.39,0-9.6.25-12.9.25s-3.73-3.26-2.38-3.56c6.06-1.32,10.62-3.15,12.56-4.89A1.89,1.89,0,0,1,324.51,405.28Z" style="fill:#2e353a"></path><path d="M321.91,406.66a2.38,2.38,0,0,1-1.51-.4,1.12,1.12,0,0,1-.39-1,.55.55,0,0,1,.32-.52c.87-.45,3.41,1.11,3.69,1.29a.16.16,0,0,1,.09.18.19.19,0,0,1-.14.16A9.47,9.47,0,0,1,321.91,406.66ZM320.74,405a.4.4,0,0,0-.24.05c-.05,0-.11.07-.12.22a.77.77,0,0,0,.25.67,3.82,3.82,0,0,0,2.8.14A7.5,7.5,0,0,0,320.74,405Z" style="fill:#407BFF"></path><path d="M323.92,406.38h-.09c-.81-.44-2.38-2.17-2.22-3a.61.61,0,0,1,.6-.49,1,1,0,0,1,.79.24c.91.74,1.1,3,1.11,3.11a.2.2,0,0,1-.09.17A.17.17,0,0,1,323.92,406.38Zm-1.58-3.19h-.09c-.24,0-.26.14-.27.19-.1.51.9,1.82,1.71,2.43a4.38,4.38,0,0,0-.93-2.46A.61.61,0,0,0,322.34,403.19Z" style="fill:#407BFF"></path><polygon points="331.96 389.53 323.85 390.39 324.64 399.41 332.75 398.56 331.96 389.53" style="opacity:0.2;isolation:isolate"></polygon><polygon points="373.32 388.24 365.45 388.24 365.79 397.63 373.66 397.63 373.32 388.24" style="opacity:0.2;isolation:isolate"></polygon><path d="M370.07,228.5H328.35c-4,21.66-16.38,98.32-7.47,166.63L335,393.38s-1.31-90.68,11.16-124.2c1.44,17.94,3.14,37,4.62,47.18,3.63,25,11.4,79.64,11.4,79.64h14.38s-2.94-52.3-4.3-76.87C370.77,292.46,370.13,234,370.07,228.5Z" style="fill:#407BFF"></path><path d="M376.56,396H362.18s-7.77-54.64-11.4-79.64c-1.48-10.15-3.18-29.24-4.62-47.18a111.8,111.8,0,0,0-4.66,18.05c-7.45,40.21-6.5,106.15-6.5,106.15l-14.12,2C312,327.07,324.38,250,328.35,229h41.72c.06,5,.7,63.71,2.19,90.38C373.62,344,376.56,396,376.56,396Z" style="fill:#fff;opacity:0.6000000000000001;isolation:isolate"></path><polygon points="319.26 398.42 336.74 395.82 336.21 390.98 318.02 393.36 319.26 398.42" style="fill:#407BFF"></polygon><polygon points="360.45 396.12 377.41 396.12 377.41 391.05 359.81 390.72 360.45 396.12" style="fill:#407BFF"></polygon><path d="M377.3,160a176.11,176.11,0,0,0-5,25.87c-.33,2.68-.6,5.31-.82,7.86-.29,3.24-.49,6.36-.65,9.32-.2,3.75-.26,8.18-.25,12.54,0,10,.42,19.65.42,19.65-8,2-31.12.67-43.75-.25a201,201,0,0,1-1.16-36.41,208,208,0,0,1,2.65-23.93,102.87,102.87,0,0,1,2.82-12.52,8,8,0,0,1,6.64-5.51c1.53-.19,3.3-.38,5.16-.49.72,0,1.44-.07,2.17-.08a154.22,154.22,0,0,1,17.84,1.24c1.12.13,2.26.3,3.36.48A102.46,102.46,0,0,1,377.3,160Z" style="fill:#407BFF"></path><path d="M336.71,169.67a251.81,251.81,0,0,0-10.62,28.92,208,208,0,0,1,2.65-23.93Z" style="opacity:0.2;isolation:isolate"></path><path d="M335.46,157.49c-9.46.76-28.06,31.69-24.56,38.41s9.36,9.85,19.48-9.15S335.46,157.49,335.46,157.49Z" style="fill:#407BFF"></path><path d="M335.46,157.49c-9.46.76-28.06,31.69-24.56,38.41s9.36,9.85,19.48-9.15S335.46,157.49,335.46,157.49Z" style="opacity:0.2;isolation:isolate"></path><path d="M340,122.42s-1.33,8.91,4.42,13.08,5.75-16,5.75-16Z" style="fill:#2e353a"></path><path d="M363.38,157.25c-3.83,3.48-13.21,2.19-13.21,2.19s-5.86-1.6-4.63-3.43c3.45-.57,5.12-2.18,5.81-4.24a10,10,0,0,0,.35-3.94,20.71,20.71,0,0,0-.29-2.2L363,137C361.49,142.71,359.63,153.14,363.38,157.25Z" style="fill:#e4897b"></path><path d="M360.33,142.5c-.46,7-6.18,8.88-9,9.27a10,10,0,0,0,.35-3.94Z" style="opacity:0.2;isolation:isolate"></path><path d="M361.11,144.11a9.83,9.83,0,0,1-11.29,3.81,11,11,0,0,1-6.25-5.09,11.2,11.2,0,0,1-.52-1c-2.83-6.62-3.73-18.2,3.27-22.54a10.66,10.66,0,0,1,16.28,8C363.46,135,364.33,139.53,361.11,144.11Z" style="fill:#e4897b"></path><path d="M351.32,131.42c.15.61-.14,1.18-.55,1.25s-.83-.38-.94-1,.15-1.18.55-1.25S351.2,130.78,351.32,131.42Z" style="fill:#2e353a"></path><path d="M344.25,132.62c.15.61-.14,1.19-.55,1.26s-.82-.39-.93-1,.14-1.19.55-1.26S344.15,132,344.25,132.62Z" style="fill:#2e353a"></path><path d="M346.55,132.55a22.9,22.9,0,0,1-2.07,5.85,3.65,3.65,0,0,0,3.1,0Z" style="fill:#de5753"></path><path d="M353.12,128.75a.38.38,0,0,1-.38-.08,3,3,0,0,0-2.56-.83.37.37,0,0,1-.18-.72h0a3.69,3.69,0,0,1,3.24,1,.36.36,0,0,1,0,.52h0A.44.44,0,0,1,353.12,128.75Z" style="fill:#2e353a"></path><path d="M349.14,141.51h0a5.67,5.67,0,0,0,4.63-2.52.19.19,0,0,0-.07-.27.19.19,0,0,0-.26.06h0a5.45,5.45,0,0,1-4.31,2.32.2.2,0,0,0-.19.19v0a.19.19,0,0,0,.19.19Z" style="fill:#2e353a"></path><path d="M340.8,130.7a.39.39,0,0,1-.21.06.37.37,0,0,1-.26-.46h0a3.69,3.69,0,0,1,2.29-2.51.36.36,0,0,1,.46.25h0a.37.37,0,0,1-.25.46h0a3,3,0,0,0-1.78,2A.35.35,0,0,1,340.8,130.7Z" style="fill:#2e353a"></path><path d="M352.83,122.25c2.17-1.08,4.74.62,4.17,2.92-.75,3,1.42,7.24,3.83,8.75,0,0-.08-1.25,1-1.09s1.59,6.67-.08,10c0,0,2.75-3.16,3.67-10.16s.33-12.59-1.59-14.5-2.41.08-3.83-2.59-4.25-5.66-6.67-3.91-4.91,2.08-6.83.75-4.08.83-3.83,3.25-3.75.66-4.59,3.16S339.14,129.09,352.83,122.25Z" style="fill:#2e353a"></path><path d="M349.82,147.92a11,11,0,0,1-6.25-5.09c1.89,0,4.64.11,5.36.55S349.81,146.23,349.82,147.92Z" style="opacity:0.2;isolation:isolate"></path><path d="M367,133a7.45,7.45,0,0,1-3.56,4.41c-2.29,1.23-4-.69-3.84-3.14.16-2.19,1.51-5.53,4.05-5.72S367.68,130.68,367,133Z" style="fill:#e4897b"></path><path d="M361.67,152.83l-11.09,5-.65-4-4.07,1.43a3.33,3.33,0,0,0-2.22,3.51l.45,4.4,5.63-3.08,2.8,4,13.32-6.41Z" style="fill:#407BFF"></path><path d="M361.67,152.83l-11.09,5-.65-4-4.07,1.43a3.33,3.33,0,0,0-2.22,3.51l.45,4.4,5.63-3.08,2.8,4,13.32-6.41Z" style="fill:#fff;opacity:0.6000000000000001;isolation:isolate"></path><path d="M333.84,171.91l9.41-15.32a6.68,6.68,0,0,0,3.88-2.49c1.45-2,2.35-10,1.67-10.34s-8,.5-8.5,1.48-1.95,9.1-1.95,9.1l-10.84,12.71Z" style="fill:#e4897b"></path><path d="M312.64,185.33c4.61-7.57,20.79-27.29,20.79-27.29l7.51,5.06s-13.53,27.46-18.61,32.8S306.14,196,312.64,185.33Z" style="fill:#407BFF"></path><path d="M312.64,185.33c4.61-7.57,20.79-27.29,20.79-27.29l7.51,5.06s-13.53,27.46-18.61,32.8S306.14,196,312.64,185.33Z" style="opacity:0.1;isolation:isolate"></path><path d="M370.83,203.06c-.2,3.75-.26,8.18-.25,12.54C355.84,214,352.17,206,352.17,206l19.31-12.22C371.19,197,371,200.1,370.83,203.06Z" style="opacity:0.2;isolation:isolate"></path><path d="M342.25,196.64l-17.94-1.25a6.67,6.67,0,0,0-4-2.28c-2.48-.34-9.93,2.53-9.93,3.3s4.13,6.85,5.24,6.85,9-2.49,9-2.49l16.28,3.73Z" style="fill:#e4897b"></path><path d="M377.18,160.09s3.77,2.15,4.32,12.66c.49,9.48-2.56,29.65-8.5,34.06-9.49,7-44-2.67-44-2.67L330.33,194s26.12,3.46,32.34,0,8.08-21.21,8.08-21.21S373.35,161.18,377.18,160.09Z" style="fill:#407BFF"></path><path d="M377.18,160.09s3.77,2.15,4.32,12.66c.49,9.48-2.56,29.65-8.5,34.06-9.49,7-44-2.67-44-2.67L330.33,194s26.12,3.46,32.34,0,8.08-21.21,8.08-21.21S373.35,161.18,377.18,160.09Z" style="opacity:0.1;isolation:isolate"></path><polygon points="332.83 193.18 331.1 205.96 327.93 204.74 328.74 193.38 332.83 193.18" style="fill:#407BFF"></polygon><polygon points="332.83 193.18 331.1 205.96 327.93 204.74 328.74 193.38 332.83 193.18" style="fill:#fff;opacity:0.6000000000000001;isolation:isolate"></polygon><polygon points="331.21 159.31 333.63 156.88 341.7 162.88 340.94 166 331.21 159.31" style="fill:#407BFF"></polygon><polygon points="331.21 159.31 333.63 156.88 341.7 162.88 340.94 166 331.21 159.31" style="fill:#fff;opacity:0.6000000000000001;isolation:isolate"></polygon><path d="M346.16,269.18a111.8,111.8,0,0,0-4.66,18.05c-1.17-16,3.5-32.9,3.5-32.9Z" style="opacity:0.2;isolation:isolate"></path></g></g><g id="freepik--character-1--inject-51"><polygon points="244.34 397.09 238.04 398.21 235.45 389.61 233.09 381.71 240.36 379.17 242.47 388.66 244.34 397.09" style="fill:#e4897b"></polygon><polygon points="242.51 388.85 235.48 389.78 233.1 381.8 240.37 379.22 242.51 388.85" style="opacity:0.2;isolation:isolate"></polygon><polygon points="202.23 400 195.83 400 194.78 390.98 193.82 382.74 201.43 381.48 201.86 391.28 202.23 400" style="fill:#e4897b"></polygon><polygon points="201.86 391.36 194.78 391.05 193.82 382.78 201.43 381.5 201.86 391.36" style="opacity:0.2;isolation:isolate"></polygon><path d="M252.25,201l10.34-10.22s.36-2.74,1.36-3.5,8.1-3.34,9-2.76,2.08,6.3.87,7.35-7.67,2.39-8.33,2.28l-11.19,13.29Z" style="fill:#eec1bb"></path><path d="M215.2,182.35c4.47,2.36,20.3,24.5,22.63,25.6S258,194.59,258,194.59l3,5.12s-14.63,20.67-22.9,19.67-24.1-18.5-24.1-18.5Z" style="fill:#407BFF"></path><path d="M215.2,182.35c4.47,2.36,20.3,24.5,22.63,25.6S258,194.59,258,194.59l3,5.12s-14.63,20.67-22.9,19.67-24.1-18.5-24.1-18.5Z" style="opacity:0.30000000000000004;isolation:isolate"></path><polygon points="257.01 195.13 258.25 193.96 261.5 199.46 260.33 201.71 257.01 195.13" style="fill:#407BFF"></polygon><path d="M220.36,207.34c-3.7-3.53-6.36-6.46-6.36-6.46l.28-4.4,1.39-4.27A17.55,17.55,0,0,1,220.36,207.34Z" style="opacity:0.2;isolation:isolate"></path><path d="M243.1,383.85l-10.37,1.83c-10.46-26.07-17.9-47.83-23.16-65.89-2.83-9.75-5.19-18.41-6.89-26.1l.32,28.38V386H192.78c-25.61-122-7.46-149.8-7.46-149.8L216,231.09a138.78,138.78,0,0,1,2.57,17.22l1.38,10.17,12,61.87Z" style="fill:#2e353a"></path><path d="M185,236.46s-4.59,10.55-5.92,15l23.07,2.72,3.66-13.75,5.28,12.75,8.66-3.26L217,234.07Z" style="fill:#407BFF"></path><path d="M185,236.46s-4.59,10.55-5.92,15l23.07,2.72,3.66-13.75,5.28,12.75,8.66-3.26L217,234.07Z" style="opacity:0.30000000000000004;isolation:isolate"></path><polygon points="185 231.89 185 236.46 217 234.06 217 228.66 185 231.89" style="fill:#2e353a"></polygon><rect x="202.73" y="230.07" width="6.86" height="5.2" transform="translate(-19.93 19.32) rotate(-5.12)" style="fill:#fff"></rect><rect x="194.46" y="230" width="1.55" height="7.91" transform="translate(-11.68 10.27) rotate(-2.93)" style="fill:#407BFF"></rect><rect x="194.46" y="230" width="1.55" height="7.91" transform="translate(-11.68 10.27) rotate(-2.93)" style="opacity:0.30000000000000004;isolation:isolate"></rect><rect x="213.55" y="227.9" width="1.55" height="7.91" transform="translate(-11.54 11.23) rotate(-2.92)" style="fill:#407BFF"></rect><rect x="213.55" y="227.9" width="1.55" height="7.91" transform="translate(-11.54 11.23) rotate(-2.92)" style="opacity:0.30000000000000004;isolation:isolate"></rect><path d="M209.57,319.79c-2.83-9.75-5-18.41-6.73-26.1a240.34,240.34,0,0,1,2-27.22S209.31,301.58,209.57,319.79Z" style="opacity:0.2;isolation:isolate"></path><path d="M180.16,158.27c.9,3.46-4,13-2,30.34s21,16.29,29.57,10.51,7.07-37.17,4.13-43.35S180.16,158.27,180.16,158.27Z" style="fill:#2e353a"></path><path d="M216.7,229.2l-31.26,2.7a110.85,110.85,0,0,0-3.32-23c-.75-3-1.69-6.34-2.89-10.2-.64-2.07-1.35-4.28-2.15-6.67-.6-1.81-1.24-3.73-2-5.76a93.49,93.49,0,0,1,13-3.13,100.07,100.07,0,0,1,14-1.48c6.08,0,13.06.64,13.06.64s1,.23,1.62,6.68C217.39,195.08,218,207.19,216.7,229.2Z" style="fill:#407BFF"></path><path d="M216.7,229.2l-31.26,2.7a110.85,110.85,0,0,0-3.32-23c-.75-3-1.69-6.34-2.89-10.2-.64-2.07-1.35-4.28-2.15-6.67-.6-1.81-1.24-3.73-2-5.76a93.49,93.49,0,0,1,13-3.13,100.07,100.07,0,0,1,14-1.48c6.08,0,13.06.64,13.06.64s1,.23,1.62,6.68C217.39,195.08,218,207.19,216.7,229.2Z" style="opacity:0.30000000000000004;isolation:isolate"></path><path d="M196.52,180.81c-3.75.23-9.75.19-13.63,6.19H190l-3.87,4.73s12.45,3,16.35,11.14c0,0,5.58-9.68,8.61-11.93a26,26,0,0,0-6.32-4.62,28.3,28.3,0,0,1,6.32-1.86S201.59,180.51,196.52,180.81Z" style="fill:#fff"></path><path d="M189.54,184.34s9.64,10.87,12.61,16.12a34.51,34.51,0,0,0-.4-17.41Z" style="fill:#407BFF"></path><path d="M189.54,184.34s9.64,10.87,12.61,16.12a34.51,34.51,0,0,0-.4-17.41Z" style="fill:#fff;opacity:0.6000000000000001;isolation:isolate"></path><path d="M199.56,188.61c-7.71-1-10-4.27-10-4.27,4.89-4.61.83-12.6.83-12.6l9.27,1.73a25.59,25.59,0,0,0-.36,3.9c-.07,5.63,2.47,5.68,2.47,5.68C203.38,186.1,199.56,188.61,199.56,188.61Z" style="fill:#eec1bb"></path><path d="M199.64,173.47a25.59,25.59,0,0,0-.36,3.9c-6.27,0-8.91-5.63-8.91-5.63Z" style="opacity:0.2;isolation:isolate"></path><path d="M194.51,147.54c8.06-.44,10.89,3.73,11.94,12,1.31,10.34-.59,17.84-10.79,16.17C181.81,173.46,181.13,148.27,194.51,147.54Z" style="fill:#eec1bb"></path><path d="M201.21,159.38a17.35,17.35,0,0,0,2.53,3.22,2.21,2.21,0,0,1-2.07,1Z" style="fill:#d4827d"></path><path d="M196.24,159c.06.66-.26,1.23-.7,1.26s-.84-.47-.89-1.13.26-1.23.7-1.26S196.19,158.33,196.24,159Z" style="fill:#2e353a"></path><path d="M195.17,157.9l1.4-.67S195.94,158.49,195.17,157.9Z" style="fill:#2e353a"></path><path d="M204.45,158.21c.06.66-.26,1.23-.7,1.26s-.84-.47-.89-1.13.26-1.23.7-1.26S204.4,157.55,204.45,158.21Z" style="fill:#2e353a"></path><path d="M203.38,157.12l1.39-.67S204.15,157.71,203.38,157.12Z" style="fill:#2e353a"></path><path d="M195.86,153.43a4.21,4.21,0,0,0-3.43,1.41" style="fill:none;stroke:#2e353a;stroke-linecap:round;stroke-linejoin:round;stroke-width:0.686238px"></path><path d="M201.7,152.77a3.74,3.74,0,0,1,3.25.49" style="fill:none;stroke:#2e353a;stroke-linecap:round;stroke-linejoin:round;stroke-width:0.686238px"></path><path d="M200.67,166.86a19.64,19.64,0,0,0-.79,2.85l-.52,0c-2.36-.11-3.42-.94-3.88-1.83a3,3,0,0,1-.31-1.4,2.93,2.93,0,0,1,.11-.82,11.26,11.26,0,0,0,4.58,1.17Z" style="fill:#2e353a"></path><path d="M199.86,166.81l-.25.83c-2.22-.1-3.77-.48-4.44-1.18a2.93,2.93,0,0,1,.11-.82A11.26,11.26,0,0,0,199.86,166.81Z" style="fill:#fff"></path><path d="M199.36,169.69c-2.36-.11-3.42-.94-3.88-1.83a7.74,7.74,0,0,1,2.6.64A2.87,2.87,0,0,1,199.36,169.69Z" style="fill:#de5753"></path><path d="M186.45,161.61s3.4-6.83,2.55-11.91c0,0,15.62-7.4,17.29,8.77,0,0,.78-14.48-13.1-14.05s-12.7,20.71-5.21,26.36C188,170.78,184.34,165.88,186.45,161.61Z" style="fill:#2e353a"></path><path d="M187.86,163.24a3.54,3.54,0,0,0-4-3c-2.48.4-3.39,5.6,2.89,6.49C187.66,166.84,188.12,165.94,187.86,163.24Z" style="fill:#eec1bb"></path><path d="M191.15,148.89a30.58,30.58,0,0,1-4.7,19c-4.53,6.85.68,12.85.68,12.85s-10.76-3.71-6.07-19c0,0-5.06-13.64,4.89-17.32,0,0,.05-4.15,9.05-3.36s16.25,8.5,17.63,18.33-3.75,20.8-3.75,20.8S214.32,145.34,191.15,148.89Z" style="fill:#2e353a"></path><path d="M191.63,148.75l.09.34c.05.22.12.55.18,1a24.18,24.18,0,0,1,.28,3.4c0,.7,0,1.46-.06,2.27s-.14,1.64-.27,2.51-.29,1.75-.49,2.65-.45,1.79-.72,2.68-.56,1.76-.92,2.61a26.26,26.26,0,0,1-1.1,2.45,25.38,25.38,0,0,1-2.51,4,20.24,20.24,0,0,1-2.24,2.49,10.59,10.59,0,0,1-1,.8,9.64,9.64,0,0,0,1-.84,19.06,19.06,0,0,0,2.15-2.55,26.21,26.21,0,0,0,2.35-4.07,25.79,25.79,0,0,0,1-2.46c.31-.83.57-1.74.82-2.61s.45-1.78.61-2.67.31-1.76.4-2.61.16-1.68.18-2.46,0-1.53,0-2.21a23.73,23.73,0,0,0-.38-3.25c-.08-.39-.15-.69-.2-.89l-.09-.29Z" style="fill:#2e353a"></path><path d="M183.35,214.33c-.34-1.68-.74-3.47-1.23-5.39-.31-1.22-.65-2.5-1-3.86,1-3.41,2-.74,2-.74A30.79,30.79,0,0,1,183.35,214.33Z" style="opacity:0.2;isolation:isolate"></path><path d="M146.24,237,135,246.24s-2.76.08-3.62,1-4.12,7.73-3.64,8.65,6.07,2.69,7.24,1.58,3.14-7.39,3.09-8.06l14.33-9.82Z" style="fill:#eec1bb"></path><path d="M175.13,186.32s-10.8,31.89-14,35.73-19.67,17.66-19.67,17.66l2.17,6.5s18.33-10.5,22.66-14.66c3.34-3.22,16.67-27,16.67-27S182.59,189.27,175.13,186.32Z" style="fill:#407BFF"></path><path d="M175.13,186.32s-10.8,31.89-14,35.73-19.67,17.66-19.67,17.66l2.17,6.5s18.33-10.5,22.66-14.66c3.34-3.22,16.67-27,16.67-27S182.59,189.27,175.13,186.32Z" style="opacity:0.30000000000000004;isolation:isolate"></path><polygon points="139.83 239.71 142 237.88 145.17 246.88 142.67 247.88 139.83 239.71" style="fill:#407BFF"></polygon><path d="M210.92,412.69a10.55,10.55,0,0,0-3.42-1.86h0s-3.72-3.69-5.51-14.8l-4.87-1.27a4.14,4.14,0,0,0-4.43,1.73,2.11,2.11,0,0,0-.31.64,25.73,25.73,0,0,0-.52,3.61c-.49,3.76-.07,12.2-.07,12.2h.88l.35-7.66c.13-2.6,2.12.45,2.69,3.25s1.78,5.78,7.48,5.92C209.84,414.58,212.6,414.32,210.92,412.69Z" style="fill:#2e353a"></path><path d="M253.42,411.94a10.55,10.55,0,0,0-3.42-1.86h0s-3.72-3.69-5.51-14.8L239.62,394a4.14,4.14,0,0,0-4.43,1.73,2.11,2.11,0,0,0-.31.64,25.73,25.73,0,0,0-.52,3.61c-.49,3.76-.07,12.2-.07,12.2h.88l.35-7.66c.13-2.6,2.12.45,2.69,3.25s1.78,5.78,7.48,5.92C252.34,413.83,255.1,413.57,253.42,411.94Z" style="fill:#2e353a"></path></g><g id="freepik--Motorcycle--inject-51"><path d="M136.5,378.61l4.89,11.24a11.88,11.88,0,0,0,10.9,7.15h20.47a10.25,10.25,0,0,0,7.24-3h38.23a9.32,9.32,0,0,0,7.56-3.87l5.05-7Z" style="fill:#2e353a"></path><path d="M167.65,334.05c0,5.39,21.48,43.67,23.63,45.19s30.19-.18,30.19-.18L219.38,387h-77l-32-62.11,21.16-30.53,38.55,1.07S167.65,328.67,167.65,334.05Z" style="fill:#407BFF"></path><path d="M167.65,334.05c0,5.39,21.48,43.67,23.63,45.19s30.19-.18,30.19-.18L219.38,387h-77l-32-62.11,21.16-30.53,38.55,1.07S167.65,328.67,167.65,334.05Z" style="opacity:0.2;isolation:isolate"></path><ellipse cx="105.1" cy="378.69" rx="31.41" ry="37.89" style="fill:#2e353a"></ellipse><ellipse cx="99.84" cy="378.69" rx="19.81" ry="23.9" style="fill:#fff"></ellipse><ellipse cx="95.29" cy="378.37" rx="8.25" ry="9.95" style="fill:#407BFF"></ellipse><ellipse cx="95.29" cy="378.37" rx="8.25" ry="9.95" style="opacity:0.4;isolation:isolate"></ellipse><path d="M280.07,321.45S251.72,343.19,240.91,388h-45.4l43-70,22.68-9.43Z" style="fill:#407BFF"></path><path d="M283,319.24s-26.51,20.27-39.17,58.41A15,15,0,0,1,229.64,388H195.51l43-70,22.68-9.43Z" style="opacity:0.4;isolation:isolate"></path><path d="M280.27,321H262.76a16.66,16.66,0,0,0-9.36,2.74c-10.39,6.92-35,26.22-37.56,56.8a8.1,8.1,0,0,1-8,7.46H131.73a72.28,72.28,0,0,1-36.4-9.83L73.57,365.49a13,13,0,0,1-6.18-13.82c2.59-12.49,9.89-33.92,30.78-42.3.33-.15-.17-.28.83-.4V296h54.56s-10.94,26.09-10.94,36.85C142.62,343,153.38,382,167.3,386h19a14.38,14.38,0,0,0,12.28-7.5c9.26-16.53,29.83-59.39,23.42-99.9-.75-4.73,2.89-9.6,7.69-9.6h24.5s22,25.52,29.14,47.09C284.06,318.19,282.49,321,280.27,321Z" style="fill:#407BFF"></path><path d="M241,260.88h-7a8.06,8.06,0,0,1-5.05-1.78l-14.39-11.65a3.21,3.21,0,0,0-2-.72H184.9a2,2,0,0,1,0-4h27.64a7.16,7.16,0,0,1,4.52,1.61L231.46,256a4,4,0,0,0,2.53.89h7a4.06,4.06,0,0,0,4-3.46l.63-4.5a7.25,7.25,0,0,1,7.13-6.19H258a2,2,0,0,1,0,4h-5.27a3.23,3.23,0,0,0-3.17,2.75l-.63,4.5A8.07,8.07,0,0,1,241,260.88Z" style="fill:#2e353a"></path><path d="M228.65,252.4s.09,4.72-4.34,4.42l-1.44,5.12a5.36,5.36,0,0,0,.61,4.31l3.13,5h29l2.28-4.3a3.65,3.65,0,0,0-.61-4.27l-8.64-8.83a4.85,4.85,0,0,0-3.48-1.47Z" style="fill:#407BFF"></path><path d="M228.65,252.4s.09,4.72-4.34,4.42l-1.44,5.12a5.36,5.36,0,0,0,.61,4.31l3.13,5h29l2.28-4.3a3.65,3.65,0,0,0-.61-4.27l-8.64-8.83a4.85,4.85,0,0,0-3.48-1.47Z" style="opacity:0.4;isolation:isolate"></path><ellipse cx="278.45" cy="378.69" rx="31.41" ry="37.89" style="fill:#2e353a"></ellipse><ellipse cx="273.2" cy="378.69" rx="19.81" ry="23.9" style="fill:#fff"></ellipse><path d="M309.36,354.25c-3.31-5.63-12.16-17.8-28.07-21.36a31.08,31.08,0,0,0-12.43-.36l-.07-.17.07-.15-.13,0L266,326h-3.11a11.63,11.63,0,0,0-7,2.34l-5.46,4.1,2.57,8.91a27.09,27.09,0,0,0-2.08,2.52,45.18,45.18,0,0,0-9.15,19.7,2.11,2.11,0,0,0,2.09,2.43h1.64a2.11,2.11,0,0,0,2-1.34,27.47,27.47,0,0,1,6.79-10.21l9.11,23.72,7.33-3.08-2.57-29.56s16.86-4.74,27.9,8.9a6.88,6.88,0,0,0,5.34,2.57h6.41A1.83,1.83,0,0,0,309.36,354.25Z" style="fill:#407BFF"></path><path d="M309.36,354.25c-3.31-5.63-12.16-17.8-28.07-21.36a31.08,31.08,0,0,0-12.43-.36l-.07-.17.07-.15-.13,0L266,326h-3.11a11.63,11.63,0,0,0-7,2.34l-5.46,4.1,2.57,8.91a27.09,27.09,0,0,0-2.08,2.52,45.18,45.18,0,0,0-9.15,19.7,2.11,2.11,0,0,0,2.09,2.43h1.64a2.11,2.11,0,0,0,2-1.34,27.47,27.47,0,0,1,6.79-10.21l9.11,23.72,7.33-3.08-2.57-29.56s16.86-4.74,27.9,8.9a6.88,6.88,0,0,0,5.34,2.57h6.41A1.83,1.83,0,0,0,309.36,354.25Z" style="opacity:0.2;isolation:isolate"></path><ellipse cx="268.65" cy="378.37" rx="8.25" ry="9.95" style="fill:#407BFF"></ellipse><ellipse cx="268.65" cy="378.37" rx="8.25" ry="9.95" style="opacity:0.4;isolation:isolate"></ellipse><path d="M238.94,272.36s5.19,32.68,22.33,32.9c16.07.22,17.57-30.46,2.24-35.17C251.13,266.28,238.94,272.36,238.94,272.36Z" style="fill:#407BFF"></path><path d="M238.94,272.36s5.19,32.68,22.33,32.9c16.07.22,17.57-30.46,2.24-35.17C251.13,266.28,238.94,272.36,238.94,272.36Z" style="opacity:0.2;isolation:isolate"></path><path d="M273.13,287.39c.38,8.29-4.62,15-11.17,15s-12.16-6.73-12.54-15,4.62-15,11.16-15S272.75,279.09,273.13,287.39Z" style="fill:#fff"></path><polygon points="256.82 265.96 241.94 265.96 243.12 264.04 256.82 264.04 256.82 265.96" style="fill:#407BFF"></polygon><path d="M175,294.62v3.76c0,3.41-2.79,5.62-6.21,5.62H101.17c-3.43,0-6.17-2.21-6.17-5.62v-3.76c0-3.41,2.74-5.62,6.17-5.62h67.62C172.21,289,175,291.21,175,294.62Z" style="fill:#2e353a"></path><path d="M153,294.62v3.76a5.37,5.37,0,0,1-5.76,5.62H101.17c-3.43,0-6.17-2.21-6.17-5.62v-3.76c0-3.41,2.74-5.62,6.17-5.62h46.07A5.37,5.37,0,0,1,153,294.62Z" style="fill:#fff;opacity:0.2;isolation:isolate"></path><path d="M144.49,363.88V388H131.73a72.28,72.28,0,0,1-36.4-9.83L73.57,365.49a13,13,0,0,1-6.18-13.82c2.59-12.49,10-33.92,30.93-42.3l1,.05h8.45A25.64,25.64,0,0,1,131,324.2l9,19.3A48.16,48.16,0,0,1,144.49,363.88Z" style="opacity:0.2;isolation:isolate"></path><rect x="204.58" y="228" width="2" height="17.83" transform="translate(-101.64 173.61) rotate(-37.41)" style="fill:#2e353a"></rect><path d="M194.45,227.5h5.1a2.71,2.71,0,0,1,2.49,1.64l.68,1.59a2.71,2.71,0,0,1-2.49,3.77h-5.55a2.7,2.7,0,0,1-2.68-2.32l-.23-1.59A2.71,2.71,0,0,1,194.45,227.5Z" style="fill:#407BFF"></path><rect x="245.03" y="237" width="12.94" height="2" transform="translate(-33.22 435.06) rotate(-78.11)" style="fill:#2e353a"></rect><path d="M258.82,227.5h-5.49a2.23,2.23,0,0,0-2.21,1.92l-.37,2.53A2.24,2.24,0,0,0,253,234.5h5.48a2.23,2.23,0,0,0,2.21-1.92l.37-2.53A2.24,2.24,0,0,0,258.82,227.5Z" style="fill:#407BFF"></path><path d="M211.77,292.63l-8.67-18.27a4.77,4.77,0,0,0-6.26-2.31l-22.63,10a4.73,4.73,0,0,0-2.19,2l-23.35,40.18a4.79,4.79,0,0,0,2.65,6.95l33,10.79a4.78,4.78,0,0,0,5.76-2.38l21.63-42.77A4.72,4.72,0,0,0,211.77,292.63Zm-13.94-14.08a2.75,2.75,0,1,1,3.47-1.76A2.76,2.76,0,0,1,197.83,278.55Z" style="fill:#407BFF"></path><path d="M211.77,292.63l-8.67-18.27a4.77,4.77,0,0,0-6.26-2.31l-22.63,10a4.73,4.73,0,0,0-2.19,2l-23.35,40.18a4.79,4.79,0,0,0,2.65,6.95l33,10.79a4.78,4.78,0,0,0,5.76-2.38l21.63-42.77A4.72,4.72,0,0,0,211.77,292.63Zm-13.94-14.08a2.75,2.75,0,1,1,3.47-1.76A2.76,2.76,0,0,1,197.83,278.55Z" style="fill:#fff;opacity:0.6000000000000001;isolation:isolate"></path><path d="M194.59,302.4a8.06,8.06,0,0,0-2.19-3.27,12.07,12.07,0,0,0-4.2-2.47l-5.78,10.93a.52.52,0,0,1,.15.07.37.37,0,0,0,.14.07,38.62,38.62,0,0,1,3.89,2.57,11.16,11.16,0,0,1,2.57,2.64,5.67,5.67,0,0,1,1,2.93,7.15,7.15,0,0,1-1,3.51,9.48,9.48,0,0,1-2.62,3.18,9.84,9.84,0,0,1-3.54,1.7,13.3,13.3,0,0,1-4.19.33,20.67,20.67,0,0,1-4.62-.89l-2.1,4-1.62-.53,2.13-4a15.92,15.92,0,0,1-9-7.83l2.76-1.83a10.47,10.47,0,0,0,2.68,4,15.15,15.15,0,0,0,5,3.17l5.78-10.93-.22-.17a43.17,43.17,0,0,1-3.69-2.5,9.71,9.71,0,0,1-2.34-2.45,4.89,4.89,0,0,1-.81-2.68,7.09,7.09,0,0,1,.94-3.18,10.18,10.18,0,0,1,2.55-3.17,10.44,10.44,0,0,1,3.39-1.87,12.47,12.47,0,0,1,4-.6,17.67,17.67,0,0,1,4.46.62l2.18-4.14,1.62.53-2.17,4.09a14.26,14.26,0,0,1,4.67,2.66,12.13,12.13,0,0,1,2.85,3.74Zm-8.84,16.21a4.39,4.39,0,0,0,.61-2.25,3.91,3.91,0,0,0-.69-2,8.38,8.38,0,0,0-1.83-1.94,32.57,32.57,0,0,0-2.89-2.05l-5.67,10.72a12.52,12.52,0,0,0,6.42.64A5.75,5.75,0,0,0,185.75,318.61Zm-8.69-19.26a4.78,4.78,0,0,0-.64,2.12,3.39,3.39,0,0,0,.53,1.81,6.71,6.71,0,0,0,1.64,1.73,32.64,32.64,0,0,0,2.72,1.88l5.61-10.6a10.19,10.19,0,0,0-6.21-.16A6.52,6.52,0,0,0,177.06,299.35Z" style="fill:#2e353a"></path><path d="M200.63,274.25s10.62.5,9.5-9.25c-1.44-12.45,13.12-12.87,11.37-17.62" style="fill:none;stroke:#407BFF;stroke-linecap:round;stroke-linejoin:round"></path></g></svg>