<?xml version="1.0" encoding="UTF-8" standalone="no"?><!DOCTYPE svg PUBLIC "-//W3C//DTD SVG 1.1//EN" "http://www.w3.org/Graphics/SVG/1.1/DTD/svg11.dtd"><svg width="100%" height="100%" viewBox="0 0 761 178" version="1.1" xmlns="http://www.w3.org/2000/svg" xmlns:xlink="http://www.w3.org/1999/xlink" xml:space="preserve" xmlns:serif="http://www.serif.com/" style="fill-rule:evenodd;clip-rule:evenodd;stroke-linejoin:round;stroke-miterlimit:2;"><g transform="matrix(3.125,0,0,3.125,-561.427,-1373.58)"><text x="263.093px" y="472.71px" style="font-family:'LucidaGrande-Bold', 'Lucida Grande', sans-serif;font-weight:600;font-size:36.277px;fill:#004ab9;">B<tspan x="283.259px 292.373px 301.487px 323.832px 337.64px 356.283px 377.636px 396.209px " y="472.71px 472.71px 472.71px 472.71px 472.71px 472.71px 472.71px 472.71px ">ilTrader</tspan></text><text x="263.093px" y="493.689px" style="font-family:'LucidaGrande-Bold', 'Lucida Grande', sans-serif;font-weight:600;font-size:12.859px;fill:#3e4e64;">F<tspan x="272.717px 279.221px 291.344px 303.781px 310.26px 322.088px 333.2px 343.164px 354.872px 365.985px 372.463px 384.901px 394.864px 406.573px 416.291px " y="493.689px 493.689px 493.689px 493.689px 493.689px 493.689px 493.689px 493.689px 493.689px 493.689px 493.689px 493.689px 493.689px 493.689px 493.689px ">IND GREAT DEALS</tspan></text></g><path d="M192.657,158.028c-1.334,1.447 -3.256,2.247 -5.418,2.247l-101.835,0c-2.159,0 -4.081,-0.8 -5.419,-2.247c-1.337,-1.444 -1.981,-3.431 -1.809,-5.575l8.291,-105.109l99.709,-0l8.297,105.112c0.169,2.141 -0.481,4.128 -1.816,5.572m-174.581,1.05c-0.506,-0.544 -1.081,-1.509 -0.959,-3.037l6.412,-81.31l43.625,0l-6.025,76.372c-0.25,3.175 0.085,6.269 0.956,9.172l-41.059,0c-1.531,0 -2.453,-0.647 -2.95,-1.197m42.769,-111.287c3.487,-0 6.147,0.909 8.212,2.818l-0.553,7.022l-19.94,0c1.54,-5.047 4.937,-9.84 12.281,-9.84m75,-34.116c11.865,0 16.384,8.675 18.04,16.569l-36.075,-0c1.657,-7.894 6.172,-16.569 18.035,-16.569m75.669,137.431l-9.532,-120.862l-34.253,-0c-2.519,-15.46 -11.794,-30.244 -31.884,-30.244c-20.085,0 -29.363,14.784 -31.881,30.244l-33.3,-0l-0.425,5.415c-2.869,-1.015 -6.01,-1.543 -9.394,-1.543c-16.1,-0 -23.863,11.297 -26.306,23.515l-26.81,0l-7.659,97.063c-0.472,6 1.459,11.678 5.444,15.994c3.987,4.315 9.493,6.684 15.512,6.684l166.213,-0c6.981,-0 13.365,-2.75 17.978,-7.741c4.609,-4.99 6.847,-11.568 6.297,-18.525" style="fill:#1d4ed8;fill-rule:nonzero;"/><path d="M161.319,71.66l-30.353,0c-3.775,0 -6.841,3.066 -6.841,6.841c0,3.775 3.066,6.841 6.841,6.841l30.353,-0c3.775,-0 6.834,-3.066 6.834,-6.841c0,-3.775 -3.059,-6.841 -6.834,-6.841" style="fill:#428aff;fill-rule:nonzero;"/><path d="M161.319,96.968l-30.353,0c-3.775,0 -6.841,3.066 -6.841,6.844c0,3.775 3.066,6.838 6.841,6.838l30.353,-0c3.775,-0 6.834,-3.063 6.834,-6.838c0,-3.778 -3.059,-6.844 -6.834,-6.844" style="fill:#428aff;fill-rule:nonzero;"/><path d="M161.319,122.283l-30.353,-0c-3.775,-0 -6.841,3.062 -6.841,6.837c0,3.778 3.066,6.841 6.841,6.841l30.353,-0c3.775,-0 6.834,-3.063 6.834,-6.841c0,-3.775 -3.059,-6.837 -6.834,-6.837" style="fill:#428aff;fill-rule:nonzero;"/><path d="M106.502,73.665c-1.3,1.266 -2.019,3.047 -2.019,4.822c-0,1.813 0.719,3.585 2.019,4.853c1.265,1.272 3.009,1.988 4.825,1.988c1.809,-0 3.553,-0.716 4.815,-1.988c1.303,-1.268 2.022,-3.04 2.022,-4.853c0,-1.775 -0.719,-3.556 -2.022,-4.822c-2.531,-2.528 -7.112,-2.528 -9.64,0" style="fill:#428aff;fill-rule:nonzero;"/><path d="M106.502,98.968c-1.3,1.265 -2.019,3.046 -2.019,4.856c-0,1.781 0.719,3.559 2.019,4.828c1.265,1.262 3.04,2.016 4.825,2.016c1.772,-0 3.553,-0.754 4.85,-2.016c1.268,-1.306 1.987,-3.047 1.987,-4.828c0,-1.81 -0.719,-3.591 -2.022,-4.856c-2.531,-2.529 -7.112,-2.529 -9.64,-0" style="fill:#428aff;fill-rule:nonzero;"/><path d="M106.502,124.272c-1.3,1.266 -2.019,3.047 -2.019,4.854c-0,1.784 0.719,3.556 2.019,4.825c1.265,1.262 3.009,2.015 4.825,2.015c1.772,0 3.553,-0.753 4.815,-2.015c1.303,-1.269 2.022,-3.041 2.022,-4.825c0,-1.807 -0.719,-3.588 -2.022,-4.854c-2.531,-2.534 -7.147,-2.534 -9.64,0" style="fill:#428aff;fill-rule:nonzero;"/></svg>