<?xml version="1.0" encoding="UTF-8" standalone="no"?><!DOCTYPE svg PUBLIC "-//W3C//DTD SVG 1.1//EN" "http://www.w3.org/Graphics/SVG/1.1/DTD/svg11.dtd"><svg width="100%" height="100%" viewBox="0 0 761 178" version="1.1" xmlns="http://www.w3.org/2000/svg" xmlns:xlink="http://www.w3.org/1999/xlink" xml:space="preserve" xmlns:serif="http://www.serif.com/" style="fill-rule:evenodd;clip-rule:evenodd;stroke-linejoin:round;stroke-miterlimit:2;"><g transform="matrix(3.125,0,0,3.125,-561.427,-1373.58)"><g transform="matrix(36.2766,0,0,36.2766,263.093,472.71)"><path d="M0.09,-0l0,-0.723l0.246,0c0.073,0 0.128,0.014 0.166,0.041c0.038,0.028 0.057,0.068 0.057,0.12c-0,0.087 -0.058,0.148 -0.174,0.185c0.135,0.032 0.203,0.099 0.203,0.198c-0,0.058 -0.02,0.102 -0.059,0.133c-0.04,0.031 -0.097,0.046 -0.171,0.046l-0.268,-0Zm0.142,-0.422l0.036,0c0.042,0 0.076,-0.01 0.1,-0.031c0.025,-0.021 0.038,-0.049 0.038,-0.085c-0,-0.033 -0.01,-0.056 -0.03,-0.068c-0.02,-0.012 -0.058,-0.018 -0.114,-0.018l-0.03,0l-0,0.202Zm-0,0.319l0.032,0c0.063,0 0.107,-0.006 0.131,-0.02c0.024,-0.013 0.036,-0.038 0.036,-0.074c-0,-0.037 -0.016,-0.067 -0.048,-0.092c-0.032,-0.024 -0.073,-0.036 -0.122,-0.036l-0.029,-0l-0,0.222Z" style="fill:#3e4e64;fill-rule:nonzero;"/></g><g transform="matrix(36.2766,0,0,36.2766,283.259,472.71)"><path d="M0.09,-0l0,-0.536l0.145,-0l-0,0.536l-0.145,-0Zm0,-0.626l0,-0.121l0.145,-0l-0,0.121l-0.145,-0Z" style="fill:#3e4e64;fill-rule:nonzero;"/></g><g transform="matrix(36.2766,0,0,36.2766,292.373,472.71)"><rect x="0.09" y="-0.771" width="0.145" height="0.771" style="fill:#3e4e64;fill-rule:nonzero;"/></g><g transform="matrix(36.2766,0,0,36.2766,301.487,472.71)"><path d="M0.27,-0l-0,-0.624l-0.259,0l-0,-0.099l0.668,0l0,0.099l-0.259,0l0,0.624l-0.15,-0Z" style="fill:#1d4ed8;fill-rule:nonzero;"/></g><g transform="matrix(36.2766,0,0,36.2766,323.832,472.71)"><path d="M0.09,-0l0,-0.536l0.145,-0l-0,0.101c0.037,-0.076 0.094,-0.113 0.171,-0.113c0.009,-0 0.018,0.001 0.027,0.003l-0,0.128c-0.021,-0.007 -0.04,-0.011 -0.058,-0.011c-0.057,0 -0.104,0.029 -0.14,0.088l-0,0.34l-0.145,0Z" style="fill:#1d4ed8;fill-rule:nonzero;"/></g><g transform="matrix(36.2766,0,0,36.2766,337.64,472.71)"><path d="M0.353,-0.058c-0.048,0.047 -0.1,0.07 -0.155,0.07c-0.047,0 -0.085,-0.014 -0.114,-0.043c-0.029,-0.028 -0.044,-0.066 -0.044,-0.111c0,-0.059 0.024,-0.105 0.071,-0.137c0.047,-0.032 0.115,-0.048 0.203,-0.048l0.039,-0l0,-0.049c0,-0.056 -0.032,-0.083 -0.095,-0.083c-0.057,-0 -0.113,0.015 -0.171,0.047l-0,-0.099c0.065,-0.025 0.13,-0.037 0.194,-0.037c0.141,-0 0.211,0.055 0.211,0.167l-0,0.237c-0,0.042 0.013,0.063 0.04,0.063c0.005,0 0.011,-0 0.019,-0.002l0.004,0.082c-0.031,0.009 -0.058,0.013 -0.081,0.013c-0.06,0 -0.098,-0.023 -0.115,-0.07l-0.006,0Zm0,-0.077l0,-0.109l-0.034,-0c-0.094,-0 -0.14,0.029 -0.14,0.088c-0,0.02 0.006,0.036 0.02,0.05c0.013,0.013 0.03,0.02 0.05,0.02c0.034,0 0.069,-0.016 0.104,-0.049Z" style="fill:#1d4ed8;fill-rule:nonzero;"/></g><g transform="matrix(36.2766,0,0,36.2766,356.283,472.71)"><path d="M0.428,-0l-0,-0.101c-0.037,0.075 -0.096,0.113 -0.176,0.113c-0.064,0 -0.115,-0.023 -0.151,-0.071c-0.037,-0.047 -0.056,-0.112 -0.056,-0.194c0,-0.09 0.021,-0.162 0.063,-0.215c0.041,-0.054 0.097,-0.08 0.167,-0.08c0.056,-0 0.107,0.022 0.153,0.066l-0,-0.289l0.145,0l-0,0.771l-0.145,-0Zm-0,-0.396c-0.035,-0.039 -0.072,-0.059 -0.112,-0.059c-0.036,0 -0.064,0.017 -0.085,0.052c-0.021,0.034 -0.032,0.08 -0.032,0.137c0,0.11 0.035,0.165 0.106,0.165c0.043,-0 0.084,-0.028 0.123,-0.083l-0,-0.212Z" style="fill:#1d4ed8;fill-rule:nonzero;"/></g><g transform="matrix(36.2766,0,0,36.2766,377.636,472.71)"><path d="M0.527,-0.018c-0.069,0.02 -0.134,0.03 -0.195,0.03c-0.09,0 -0.161,-0.025 -0.212,-0.076c-0.052,-0.051 -0.078,-0.12 -0.078,-0.208c-0,-0.083 0.024,-0.15 0.071,-0.2c0.047,-0.051 0.11,-0.076 0.188,-0.076c0.078,-0 0.136,0.024 0.172,0.074c0.036,0.049 0.054,0.128 0.054,0.235l-0.333,-0c0.01,0.102 0.066,0.153 0.169,0.153c0.048,0 0.103,-0.011 0.164,-0.034l-0,0.102Zm-0.335,-0.303l0.193,0c-0,-0.091 -0.03,-0.137 -0.089,-0.137c-0.06,-0 -0.094,0.046 -0.104,0.137Z" style="fill:#1d4ed8;fill-rule:nonzero;"/></g><g transform="matrix(36.2766,0,0,36.2766,396.209,472.71)"><path d="M0.09,-0l0,-0.536l0.145,-0l-0,0.101c0.037,-0.076 0.094,-0.113 0.171,-0.113c0.009,-0 0.018,0.001 0.027,0.003l-0,0.128c-0.021,-0.007 -0.04,-0.011 -0.058,-0.011c-0.057,0 -0.104,0.029 -0.14,0.088l-0,0.34l-0.145,0Z" style="fill:#1d4ed8;fill-rule:nonzero;"/></g><g transform="matrix(12.8594,0,0,12.8594,263.093,493.689)"><path d="M0.09,-0l0,-0.723l0.455,0l-0,0.099l-0.304,0l-0,0.22l0.25,0l-0,0.1l-0.25,-0l-0,0.304l-0.151,0Z" style="fill:#3e4e64;fill-rule:nonzero;"/></g><g transform="matrix(12.8594,0,0,12.8594,272.717,493.689)"><rect x="0.09" y="-0.723" width="0.15" height="0.723" style="fill:#3e4e64;fill-rule:nonzero;"/></g><g transform="matrix(12.8594,0,0,12.8594,279.221,493.689)"><path d="M0.09,-0l0,-0.723l0.133,0l0.335,0.494l-0,-0.494l0.12,0l0,0.723l-0.135,-0l-0.332,-0.494l-0,0.494l-0.121,-0Z" style="fill:#3e4e64;fill-rule:nonzero;"/></g><g transform="matrix(12.8594,0,0,12.8594,291.344,493.689)"><path d="M0.09,-0l0,-0.723l0.311,0c0.112,0 0.198,0.03 0.258,0.089c0.059,0.06 0.089,0.146 0.089,0.258c0,0.119 -0.032,0.211 -0.095,0.277c-0.063,0.066 -0.151,0.099 -0.265,0.099l-0.298,-0Zm0.151,-0.103l0.112,0c0.079,0 0.138,-0.021 0.177,-0.065c0.039,-0.044 0.058,-0.11 0.058,-0.2c0,-0.069 -0.015,-0.126 -0.046,-0.172c-0.022,-0.032 -0.048,-0.053 -0.078,-0.065c-0.03,-0.013 -0.075,-0.019 -0.132,-0.019l-0.091,0l-0,0.521Z" style="fill:#3e4e64;fill-rule:nonzero;"/></g><g transform="matrix(12.8594,0,0,12.8594,310.26,493.689)"><path d="M0.667,-0.017c-0.09,0.023 -0.168,0.035 -0.234,0.035c-0.125,0 -0.22,-0.033 -0.287,-0.098c-0.067,-0.066 -0.101,-0.16 -0.101,-0.282c0,-0.122 0.034,-0.215 0.101,-0.281c0.067,-0.065 0.162,-0.098 0.286,-0.098c0.079,0 0.157,0.01 0.235,0.028l-0,0.118c-0.09,-0.031 -0.164,-0.047 -0.222,-0.047c-0.077,0 -0.136,0.025 -0.177,0.074c-0.042,0.048 -0.063,0.118 -0.063,0.207c0,0.087 0.022,0.155 0.067,0.204c0.045,0.049 0.106,0.074 0.185,0.074c0.017,-0 0.037,-0.002 0.06,-0.007l0,-0.238l0.15,-0l0,0.311Z" style="fill:#3e4e64;fill-rule:nonzero;"/></g><g transform="matrix(12.8594,0,0,12.8594,322.088,493.689)"><path d="M0.09,-0l0,-0.723l0.271,0c0.147,0 0.22,0.06 0.22,0.18c0,0.044 -0.012,0.085 -0.037,0.121c-0.025,0.037 -0.059,0.065 -0.103,0.085l0.236,0.337l-0.183,-0l-0.179,-0.295l-0.083,-0l-0,0.295l-0.142,-0Zm0.142,-0.395l0.035,0c0.109,0 0.163,-0.044 0.163,-0.132c0,-0.064 -0.048,-0.097 -0.146,-0.097l-0.052,0l-0,0.229Z" style="fill:#3e4e64;fill-rule:nonzero;"/></g><g transform="matrix(12.8594,0,0,12.8594,333.2,493.689)"><path d="M0.09,-0l0,-0.723l0.452,0l-0,0.099l-0.301,0l-0,0.202l0.247,0l-0,0.097l-0.247,-0l-0,0.222l0.324,0l-0,0.103l-0.475,-0Z" style="fill:#3e4e64;fill-rule:nonzero;"/></g><g transform="matrix(12.8594,0,0,12.8594,343.164,493.689)"><path d="M0.011,-0l0.281,-0.723l0.151,0l0.281,0.723l-0.154,-0l-0.075,-0.193l-0.299,0l-0.075,0.193l-0.11,-0Zm0.222,-0.289l0.225,-0l-0.113,-0.288l-0.112,0.288Z" style="fill:#3e4e64;fill-rule:nonzero;"/></g><g transform="matrix(12.8594,0,0,12.8594,354.872,493.689)"><path d="M0.27,-0l-0,-0.624l-0.259,0l-0,-0.099l0.668,0l0,0.099l-0.259,0l0,0.624l-0.15,-0Z" style="fill:#3e4e64;fill-rule:nonzero;"/></g><g transform="matrix(12.8594,0,0,12.8594,372.463,493.689)"><path d="M0.09,-0l0,-0.723l0.311,0c0.112,0 0.198,0.03 0.258,0.089c0.059,0.06 0.089,0.146 0.089,0.258c0,0.119 -0.032,0.211 -0.095,0.277c-0.063,0.066 -0.151,0.099 -0.265,0.099l-0.298,-0Zm0.151,-0.103l0.112,0c0.079,0 0.138,-0.021 0.177,-0.065c0.039,-0.044 0.058,-0.11 0.058,-0.2c0,-0.069 -0.015,-0.126 -0.046,-0.172c-0.022,-0.032 -0.048,-0.053 -0.078,-0.065c-0.03,-0.013 -0.075,-0.019 -0.132,-0.019l-0.091,0l-0,0.521Z" style="fill:#3e4e64;fill-rule:nonzero;"/></g><g transform="matrix(12.8594,0,0,12.8594,384.901,493.689)"><path d="M0.09,-0l0,-0.723l0.452,0l-0,0.099l-0.301,0l-0,0.202l0.247,0l-0,0.097l-0.247,-0l-0,0.222l0.324,0l-0,0.103l-0.475,-0Z" style="fill:#3e4e64;fill-rule:nonzero;"/></g><g transform="matrix(12.8594,0,0,12.8594,394.864,493.689)"><path d="M0.011,-0l0.281,-0.723l0.151,0l0.281,0.723l-0.154,-0l-0.075,-0.193l-0.299,0l-0.075,0.193l-0.11,-0Zm0.222,-0.289l0.225,-0l-0.113,-0.288l-0.112,0.288Z" style="fill:#3e4e64;fill-rule:nonzero;"/></g><g transform="matrix(12.8594,0,0,12.8594,406.573,493.689)"><path d="M0.09,-0l0,-0.723l0.151,0l-0,0.62l0.325,0l0,0.103l-0.476,-0Z" style="fill:#3e4e64;fill-rule:nonzero;"/></g><g transform="matrix(12.8594,0,0,12.8594,416.291,493.689)"><path d="M0.05,-0.006l-0,-0.124c0.078,0.032 0.144,0.048 0.2,0.048c0.038,0 0.069,-0.008 0.091,-0.025c0.022,-0.018 0.034,-0.041 0.034,-0.071c-0,-0.023 -0.007,-0.043 -0.021,-0.059c-0.014,-0.016 -0.041,-0.035 -0.08,-0.057l-0.048,-0.027c-0.065,-0.037 -0.111,-0.072 -0.138,-0.105c-0.026,-0.033 -0.04,-0.072 -0.04,-0.117c0,-0.06 0.022,-0.107 0.066,-0.144c0.044,-0.036 0.102,-0.054 0.174,-0.054c0.057,0 0.122,0.009 0.194,0.025l0,0.116c-0.073,-0.028 -0.132,-0.042 -0.175,-0.042c-0.033,0 -0.06,0.008 -0.08,0.023c-0.02,0.014 -0.03,0.034 -0.03,0.058c0,0.02 0.007,0.037 0.021,0.052c0.014,0.015 0.041,0.034 0.079,0.055l0.052,0.029c0.07,0.039 0.118,0.075 0.144,0.108c0.027,0.033 0.04,0.073 0.04,0.12c-0,0.067 -0.025,0.12 -0.075,0.158c-0.05,0.038 -0.118,0.057 -0.206,0.057c-0.058,0 -0.125,-0.008 -0.202,-0.024Z" style="fill:#3e4e64;fill-rule:nonzero;"/></g></g><path d="M192.657,158.028c-1.334,1.447 -3.256,2.247 -5.418,2.247l-101.835,0c-2.159,0 -4.081,-0.8 -5.419,-2.247c-1.337,-1.444 -1.981,-3.431 -1.809,-5.575l8.291,-105.109l99.709,-0l8.297,105.112c0.169,2.141 -0.481,4.128 -1.816,5.572m-174.581,1.05c-0.506,-0.544 -1.081,-1.509 -0.959,-3.037l6.412,-81.31l43.625,0l-6.025,76.372c-0.25,3.175 0.085,6.269 0.956,9.172l-41.059,0c-1.531,0 -2.453,-0.647 -2.95,-1.197m42.769,-111.287c3.487,-0 6.147,0.909 8.212,2.818l-0.553,7.022l-19.94,0c1.54,-5.047 4.937,-9.84 12.281,-9.84m75,-34.116c11.865,0 16.384,8.675 18.04,16.569l-36.075,-0c1.657,-7.894 6.172,-16.569 18.035,-16.569m75.669,137.431l-9.532,-120.862l-34.253,-0c-2.519,-15.46 -11.794,-30.244 -31.884,-30.244c-20.085,0 -29.363,14.784 -31.881,30.244l-33.3,-0l-0.425,5.415c-2.869,-1.015 -6.01,-1.543 -9.394,-1.543c-16.1,-0 -23.863,11.297 -26.306,23.515l-26.81,0l-7.659,97.063c-0.472,6 1.459,11.678 5.444,15.994c3.987,4.315 9.493,6.684 15.512,6.684l166.213,-0c6.981,-0 13.365,-2.75 17.978,-7.741c4.609,-4.99 6.847,-11.568 6.297,-18.525" style="fill:#1d4ed8;fill-rule:nonzero;"/><path d="M161.319,71.66l-30.353,0c-3.775,0 -6.841,3.066 -6.841,6.841c0,3.775 3.066,6.841 6.841,6.841l30.353,-0c3.775,-0 6.834,-3.066 6.834,-6.841c0,-3.775 -3.059,-6.841 -6.834,-6.841" style="fill:#009cdb;fill-rule:nonzero;"/><path d="M161.319,96.968l-30.353,0c-3.775,0 -6.841,3.066 -6.841,6.844c0,3.775 3.066,6.838 6.841,6.838l30.353,-0c3.775,-0 6.834,-3.063 6.834,-6.838c0,-3.778 -3.059,-6.844 -6.834,-6.844" style="fill:#009cdb;fill-rule:nonzero;"/><path d="M161.319,122.283l-30.353,-0c-3.775,-0 -6.841,3.062 -6.841,6.837c0,3.778 3.066,6.841 6.841,6.841l30.353,-0c3.775,-0 6.834,-3.063 6.834,-6.841c0,-3.775 -3.059,-6.837 -6.834,-6.837" style="fill:#009cdb;fill-rule:nonzero;"/><path d="M106.502,73.665c-1.3,1.266 -2.019,3.047 -2.019,4.822c-0,1.813 0.719,3.585 2.019,4.853c1.265,1.272 3.009,1.988 4.825,1.988c1.809,-0 3.553,-0.716 4.815,-1.988c1.303,-1.268 2.022,-3.04 2.022,-4.853c0,-1.775 -0.719,-3.556 -2.022,-4.822c-2.531,-2.528 -7.112,-2.528 -9.64,0" style="fill:#009cdb;fill-rule:nonzero;"/><path d="M106.502,98.968c-1.3,1.265 -2.019,3.046 -2.019,4.856c-0,1.781 0.719,3.559 2.019,4.828c1.265,1.262 3.04,2.016 4.825,2.016c1.772,-0 3.553,-0.754 4.85,-2.016c1.268,-1.306 1.987,-3.047 1.987,-4.828c0,-1.81 -0.719,-3.591 -2.022,-4.856c-2.531,-2.529 -7.112,-2.529 -9.64,-0" style="fill:#009cdb;fill-rule:nonzero;"/><path d="M106.502,124.272c-1.3,1.266 -2.019,3.047 -2.019,4.854c-0,1.784 0.719,3.556 2.019,4.825c1.265,1.262 3.009,2.015 4.825,2.015c1.772,0 3.553,-0.753 4.815,-2.015c1.303,-1.269 2.022,-3.041 2.022,-4.825c0,-1.807 -0.719,-3.588 -2.022,-4.854c-2.531,-2.534 -7.147,-2.534 -9.64,0" style="fill:#009cdb;fill-rule:nonzero;"/></svg>